<?xml version="1.0" encoding="utf-8"?>
<!-- Generator: Adobe Illustrator 27.5.0, SVG Export Plug-In . SVG Version: 6.00 Build 0)  -->
<svg version="1.1" xmlns="http://www.w3.org/2000/svg" xmlns:xlink="http://www.w3.org/1999/xlink" x="0px" y="0px"
	 viewBox="0 0 500 500" style="enable-background:new 0 0 500 500;" xml:space="preserve">
<g id="Background_Simple">
	<g>
		<path style="fill:#92E3A9;" d="M449.024,142.598c0,0-66.685-79.761-169.981-98.066C175.747,26.226,155.48,104.025,120.83,149.79
			c-34.65,45.764-73.876,62.762-75.838,128.793c-1.961,66.031,24.843,100.027,76.492,123.563s104.604,35.958,156.252,43.149
			s92.836,3.269,113.103-39.226c20.267-42.495,11.114-62.109,34.65-82.376C449.024,303.427,501.98,211.244,449.024,142.598z"/>
		<path style="opacity:0.7;fill:#FFFFFF;" d="M449.024,142.598c0,0-66.685-79.761-169.981-98.066
			C175.747,26.226,155.48,104.025,120.83,149.79c-34.65,45.764-73.876,62.762-75.838,128.793
			c-1.961,66.031,24.843,100.027,76.492,123.563s104.604,35.958,156.252,43.149s92.836,3.269,113.103-39.226
			c20.267-42.495,11.114-62.109,34.65-82.376C449.024,303.427,501.98,211.244,449.024,142.598z"/>
	</g>
</g>
<g id="Bird_4">
	<g>
		<g>
			<polygon style="fill:#92E3A9;stroke:#263238;stroke-linecap:round;stroke-linejoin:round;stroke-miterlimit:10;" points="
				293.077,362.002 286.484,315.854 318.301,319.581 438.974,414.457 369.035,422.196 			"/>
			<polygon style="fill:#FFFFFF;stroke:#263238;stroke-linecap:round;stroke-linejoin:round;stroke-miterlimit:10;" points="
				293.077,362.002 356.996,357.99 331.199,392.099 			"/>
			<polygon style="fill:#92E3A9;stroke:#263238;stroke-linecap:round;stroke-linejoin:round;stroke-miterlimit:10;" points="
				356.996,357.99 352.697,305.249 308.555,361.142 			"/>
			<polygon style="fill:#FFFFFF;stroke:#263238;stroke-linecap:round;stroke-linejoin:round;stroke-miterlimit:10;" points="
				352.697,305.249 369.035,422.196 331.199,392.099 356.996,357.99 			"/>
			<polygon style="fill:#92E3A9;stroke:#263238;stroke-linecap:round;stroke-linejoin:round;stroke-miterlimit:10;" points="
				352.697,305.249 446.14,294.07 365.325,395.077 			"/>
			<polygon style="fill:#FFFFFF;stroke:#263238;stroke-linecap:round;stroke-linejoin:round;stroke-miterlimit:10;" points="
				286.484,315.854 280.235,338.456 288.999,334.4 			"/>
		</g>
		<polygon style="fill:#263238;stroke:#263238;stroke-linecap:round;stroke-linejoin:round;stroke-miterlimit:10;" points="
			352.697,305.249 367.724,390.922 365.325,395.077 		"/>
		<polygon style="fill:#263238;stroke:#263238;stroke-linecap:round;stroke-linejoin:round;stroke-miterlimit:10;" points="
			383.984,371.75 365.325,395.077 366.267,399.174 385.683,372.72 		"/>
	</g>
</g>
<g id="Bird_3">
	<g>
		<g>
			<polygon style="fill:#263238;stroke:#263238;stroke-linecap:round;stroke-linejoin:round;stroke-miterlimit:10;" points="
				351.629,187.298 341.36,213.175 372.987,239.873 			"/>
			<polygon style="fill:#263238;stroke:#263238;stroke-linecap:round;stroke-linejoin:round;stroke-miterlimit:10;" points="
				288.374,135.955 356.147,202.085 295.357,120.347 			"/>
			<polygon style="fill:#92E3A9;stroke:#263238;stroke-linecap:round;stroke-linejoin:round;stroke-miterlimit:10;" points="
				293.714,105.149 266.194,136.777 304.804,136.777 			"/>
			<polygon style="fill:#92E3A9;stroke:#263238;stroke-linecap:round;stroke-linejoin:round;stroke-miterlimit:10;" points="
				296.178,131.848 367.648,216.05 365.594,139.652 			"/>
			<polygon style="fill:#92E3A9;stroke:#263238;stroke-linecap:round;stroke-linejoin:round;stroke-miterlimit:10;" points="
				293.714,105.149 296.178,131.848 365.594,139.652 			"/>
			<polygon style="fill:#92E3A9;stroke:#263238;stroke-linecap:round;stroke-linejoin:round;stroke-miterlimit:10;" points="
				296.178,131.848 370.523,71.058 365.594,139.652 			"/>
			<polygon style="fill:#92E3A9;stroke:#263238;stroke-linecap:round;stroke-linejoin:round;stroke-miterlimit:10;" points="
				370.523,71.058 434.599,82.148 365.594,139.652 			"/>
			<polygon style="fill:#92E3A9;stroke:#263238;stroke-linecap:round;stroke-linejoin:round;stroke-miterlimit:10;" points="
				365.594,139.652 351.629,209.067 372.987,239.873 			"/>
		</g>
		<polygon style="fill:#263238;stroke:#263238;stroke-linecap:round;stroke-linejoin:round;stroke-miterlimit:10;" points="
			293.714,105.149 293.626,133.172 296.997,136.543 300.087,136.543 296.178,131.848 		"/>
	</g>
</g>
<g id="Bird_2">
	<g>
		<polygon style="fill:#263238;stroke:#263238;stroke-linecap:round;stroke-linejoin:round;stroke-miterlimit:10;" points="
			182.173,161.235 86.754,85.961 128.164,153.722 		"/>
		<polygon style="fill:#263238;stroke:#263238;stroke-linecap:round;stroke-linejoin:round;stroke-miterlimit:10;" points="
			203.45,88.043 184.023,162.609 87.832,212.565 		"/>
		<polygon style="fill:#92E3A9;stroke:#263238;stroke-linecap:round;stroke-linejoin:round;stroke-miterlimit:10;" points="
			203.45,88.043 182.173,161.235 71.109,222.086 124.3,156.98 144.726,132.299 180.045,94.426 		"/>
		<polygon style="fill:#92E3A9;stroke:#263238;stroke-linecap:round;stroke-linejoin:round;stroke-miterlimit:10;" points="
			203.45,88.043 230.684,107.618 199.426,102.078 		"/>
		<polygon style="fill:#92E3A9;stroke:#263238;stroke-linecap:round;stroke-linejoin:round;stroke-miterlimit:10;" points="
			182.173,161.235 78.768,85.915 124.3,156.98 		"/>
	</g>
</g>
<g id="Bird_1">
	<g>
		<polygon style="fill:#92E3A9;stroke:#263238;stroke-linecap:round;stroke-linejoin:round;stroke-miterlimit:10;" points="
			171.339,335.82 134.297,275.185 109.16,371.761 132.092,377.494 		"/>
		<polygon style="fill:#263238;stroke:#263238;stroke-linecap:round;stroke-linejoin:round;stroke-miterlimit:10;" points="
			204.051,293.444 211.317,303.501 202.456,301.053 		"/>
		<polygon style="fill:#263238;stroke:#263238;stroke-linecap:round;stroke-linejoin:round;stroke-miterlimit:10;" points="
			171.339,335.82 154.582,346.404 166.268,347.507 		"/>
		<polygon style="fill:#263238;stroke:#263238;stroke-linecap:round;stroke-linejoin:round;stroke-miterlimit:10;" points="
			132.753,341.994 114.673,371.32 126.579,374.627 		"/>
		<polygon style="fill:#92E3A9;stroke:#263238;stroke-linecap:round;stroke-linejoin:round;stroke-miterlimit:10;" points="
			129.446,370.879 28.46,361.398 106.735,399.322 117.319,406.599 		"/>
		<polygon style="fill:#92E3A9;stroke:#263238;stroke-linecap:round;stroke-linejoin:round;stroke-miterlimit:10;" points="
			169.575,347.507 132.753,341.994 115.775,408.803 		"/>
		<polygon style="fill:#92E3A9;stroke:#263238;stroke-linecap:round;stroke-linejoin:round;stroke-miterlimit:10;" points="
			204.051,293.444 200.746,290.394 193.629,295.986 169.736,339.706 192.867,353.431 		"/>
		
			<line style="fill:none;stroke:#263238;stroke-linecap:round;stroke-linejoin:round;stroke-miterlimit:10;" x1="197.188" y1="295.224" x2="204.051" y2="293.444"/>
		<polygon style="fill:#92E3A9;stroke:#263238;stroke-linecap:round;stroke-linejoin:round;stroke-miterlimit:10;" points="
			171.339,335.82 227.565,378.816 115.775,408.803 		"/>
		
			<line style="fill:none;stroke:#263238;stroke-width:0.5;stroke-linecap:round;stroke-linejoin:round;stroke-miterlimit:10;" x1="192.747" y1="373.182" x2="151.495" y2="366.469"/>
		
			<line style="fill:none;stroke:#263238;stroke-width:0.5;stroke-linecap:round;stroke-linejoin:round;stroke-miterlimit:10;" x1="226.021" y1="378.596" x2="196.718" y2="373.828"/>
		
			<line style="fill:none;stroke:#263238;stroke-width:0.5;stroke-linecap:round;stroke-linejoin:round;stroke-miterlimit:10;" x1="116.836" y1="390.793" x2="119.083" y2="388.959"/>
		
			<line style="fill:none;stroke:#263238;stroke-width:0.5;stroke-linecap:round;stroke-linejoin:round;stroke-miterlimit:10;" x1="108.278" y1="397.779" x2="114.973" y2="392.314"/>
		
			<line style="fill:none;stroke:#263238;stroke-width:0.5;stroke-linecap:round;stroke-linejoin:round;stroke-miterlimit:10;" x1="138.072" y1="332.525" x2="138.486" y2="339.348"/>
		
			<line style="fill:none;stroke:#263238;stroke-width:0.5;stroke-linecap:round;stroke-linejoin:round;stroke-miterlimit:10;" x1="134.958" y1="281.138" x2="137.832" y2="328.557"/>
	</g>
</g>
</svg>
